<svg width="1440" height="704" viewBox="0 0 1440 704" fill="none" xmlns="http://www.w3.org/2000/svg">
<mask id="mask0_2517_13050" style="mask-type:alpha" maskUnits="userSpaceOnUse" x="0" y="0" width="1440" height="704">
<rect width="1440" height="704" fill="#D9D9D9"/>
</mask>
<g mask="url(#mask0_2517_13050)">
<path d="M1799.25 151.807C1251.64 72.7764 770.225 608.956 288.751 391.658C86.6379 300.441 -6.55602 150.356 -6.55602 150.356L-46.556 414.092L-486.367 413.123L-486.864 638.63C-486.734 638.518 -343.795 515.197 -206.777 490.344C35.4019 446.417 -73.5924 628.466 354.732 692.758C783.057 757.049 1232.59 478.66 1790.18 548.233C2015.33 576.326 2096.46 596.412 2096.64 596.458L2097.01 430.193C2269 430.604 2448.57 431.02 2640.35 431.443L2640.85 205.935C2640.85 205.935 2539.32 259.562 2321.63 253.095C2089.12 246.188 1970.71 176.552 1799.25 151.807Z" fill="url(#paint0_linear_2517_13050)"/>
</g>
<defs>
<linearGradient id="paint0_linear_2517_13050" x1="897.516" y1="728.276" x2="913.736" y2="423.947" gradientUnits="userSpaceOnUse">
<stop stop-color="#F2D311"/>
<stop offset="1" stop-color="#DE4B77"/>
</linearGradient>
</defs>
</svg>
