<svg width="42" height="42" viewBox="0 0 42 42" fill="none" xmlns="http://www.w3.org/2000/svg">
<path fill-rule="evenodd" clip-rule="evenodd" d="M18.6591 6.93119C20.5525 5.01974 23.1277 3.93874 25.8182 3.926L30.8904 3.90198C31.8241 3.89756 32.5847 4.65094 32.5891 5.58471L32.6211 12.3476C32.6255 13.2814 31.8722 14.042 30.9384 14.0464L25.8662 14.0704L25.8742 15.7611L30.9464 15.7371C31.467 15.7346 31.9598 15.9722 32.2821 16.381C32.6045 16.7899 32.7205 17.3245 32.5966 17.8301L30.9379 24.6011C30.7533 25.3546 30.0795 25.8858 29.3037 25.8895L25.9222 25.9055L25.9703 36.0499C25.9747 36.9837 25.2213 37.7442 24.2875 37.7487L17.5246 37.7807C16.5908 37.7851 15.8303 37.0317 15.8259 36.098L15.7778 25.9536L12.3964 25.9696C11.4626 25.974 10.7021 25.2206 10.6976 24.2868L10.6656 17.5239C10.6612 16.5901 11.4146 15.8296 12.3483 15.8252L15.7298 15.8092L15.7218 14.1184C15.7091 11.428 16.7656 8.84264 18.6591 6.93119ZM25.8342 7.30746C24.0405 7.31596 22.3237 8.03662 21.0614 9.31092C19.7991 10.5852 19.0948 12.3088 19.1033 14.1024L19.1193 17.4839C19.1237 18.4177 18.3703 19.1782 17.4365 19.1826L14.0551 19.1986L14.0711 22.5801L17.4526 22.5641C18.3863 22.5597 19.1469 23.3131 19.1513 24.2468L19.1993 34.3912L22.5808 34.3752L22.5328 24.2308C22.5283 23.297 23.2817 22.5365 24.2155 22.5321L27.9676 22.5143L28.797 19.1288L24.1995 19.1506C23.2657 19.155 22.5052 18.4016 22.5007 17.4679L22.4847 14.0864C22.4805 13.1896 22.8327 12.3278 23.4638 11.6907C24.095 11.0535 24.9534 10.6932 25.8502 10.6889L29.2316 10.6729L29.2156 7.29145L25.8342 7.30746Z" fill="#21272A"/>
</svg>
