<svg width="41" height="42" viewBox="0 0 41 42" fill="none" xmlns="http://www.w3.org/2000/svg">
<path fill-rule="evenodd" clip-rule="evenodd" d="M13.7578 9.4098C10.9565 9.42306 8.69632 11.7047 8.70958 14.506L8.77363 28.0319C8.78689 30.8332 11.0685 33.0933 13.8698 33.0801L27.3957 33.016C30.197 33.0028 32.4572 30.7211 32.4439 27.9198L32.3798 14.3939C32.3666 11.5926 30.0849 9.33249 27.2836 9.34575L13.7578 9.4098ZM5.32811 14.522C5.30601 9.85319 9.07292 6.05044 13.7418 6.02833L27.2676 5.96429C31.9364 5.94218 35.7392 9.70909 35.7613 14.3779L35.8254 27.9038C35.8475 32.5726 32.0805 36.3754 27.4117 36.3975L13.8859 36.4615C9.21702 36.4836 5.41427 32.7167 5.39216 28.0479L5.32811 14.522ZM20.5607 17.8314C18.6932 17.8403 17.1864 19.3614 17.1953 21.2289C17.2041 23.0965 18.7252 24.6032 20.5927 24.5944C22.4603 24.5855 23.967 23.0644 23.9582 21.1969C23.9494 19.3294 22.4283 17.8226 20.5607 17.8314ZM13.8138 21.2449C13.7961 17.5099 16.8096 14.4677 20.5447 14.45C24.2798 14.4323 27.322 17.4458 27.3397 21.1809C27.3574 24.9159 24.3438 27.9582 20.6088 27.9758C16.8737 27.9935 13.8315 24.98 13.8138 21.2449Z" fill="#21272A" fill-opacity="0.980392"/>
</svg>
