<svg width="51" height="41" viewBox="0 0 51 41" fill="none" xmlns="http://www.w3.org/2000/svg">
<mask id="mask0_2397_14797" style="mask-type:luminance" maskUnits="userSpaceOnUse" x="0" y="0" width="51" height="41">
<path d="M50.5151 40.4521V0.732422H0.507324V40.4521H50.5151Z" fill="white" stroke="white" stroke-width="0.0166749"/>
</mask>
<g mask="url(#mask0_2397_14797)">
<path d="M19.4126 32.5293L19.4116 32.5264L19.4185 32.5303C21.3152 33.5647 23.4355 34.1404 25.603 34.209L26.0376 34.2158H26.0435C33.6773 34.2157 39.8919 28.0024 39.895 20.3652L39.8901 20.0186C39.8074 16.5624 38.4661 13.3179 36.0835 10.8135L35.8413 10.5654C33.2263 7.94732 29.7485 6.50459 26.0435 6.50293L25.686 6.50781C18.2155 6.69791 12.195 12.8362 12.1919 20.3535L12.1987 20.8105C12.2723 23.0916 12.9042 25.3091 14.0405 27.2783L14.0337 27.2832L14.0435 27.2773L14.0415 27.2852L12.0776 34.4541L19.4126 32.5293ZM25.6509 31.8857C23.8459 31.8245 22.0819 31.3413 20.5054 30.4766L20.1714 30.2852L19.7534 30.0371L15.397 31.1807L15.3823 31.1836L15.3862 31.1699L16.5483 26.9229L16.2769 26.4893C15.1231 24.654 14.5141 22.5326 14.5151 20.3545L14.519 20.0576C14.6769 13.937 19.6274 8.98666 25.7505 8.83105L26.0474 8.82715C28.9343 8.82813 31.659 9.88393 33.7817 11.8115L34.1978 12.208C36.3741 14.3871 37.5728 17.2839 37.5718 20.3643L37.5679 20.6611C37.4071 26.8808 32.2981 31.8924 26.0435 31.8926H26.0386L25.6509 31.8857ZM28.3071 26.8086C29.0317 27.0389 29.6995 27.0397 30.2544 26.9766L30.4849 26.9463C30.816 26.8967 31.327 26.6874 31.7915 26.3896C32.1982 26.129 32.5674 25.8011 32.7495 25.4541L32.8159 25.3047C32.9599 24.901 33.0319 24.5261 33.0571 24.2344C33.0697 24.0887 33.0706 23.9636 33.063 23.8662C33.0591 23.8171 33.053 23.775 33.0454 23.7412L33.0181 23.665C32.9761 23.5949 32.8991 23.5378 32.7876 23.4766C32.6759 23.4153 32.5315 23.3506 32.3579 23.2637C32.1847 23.1769 31.6729 22.9241 31.1646 22.6787C30.7832 22.4946 30.4039 22.3148 30.1714 22.2119L29.9927 22.1367C29.834 22.0789 29.6987 22.0366 29.5747 22.0508C29.4824 22.0614 29.395 22.1034 29.3091 22.1963L29.2231 22.3076C29.1074 22.4812 28.8836 22.763 28.6636 23.0303L28.1265 23.666C28.0247 23.7823 27.9219 23.8494 27.8003 23.8643C27.7092 23.8753 27.6078 23.857 27.4897 23.8105L27.3657 23.7549C27.0417 23.5928 26.0396 23.26 24.8247 22.2461L24.5786 22.0342C23.806 21.3448 23.2222 20.5338 22.8931 20.0254L22.6509 19.6338C22.5489 19.4585 22.5482 19.3261 22.5933 19.2139C22.6156 19.1583 22.6488 19.1077 22.686 19.0596L22.8032 18.917C22.9906 18.6843 23.1785 18.4462 23.3335 18.2373C23.4111 18.1327 23.4805 18.0355 23.5376 17.9502L23.6685 17.7344C23.7538 17.5637 23.7428 17.4089 23.6958 17.2695L23.6392 17.1348C23.5956 17.0471 23.4008 16.5776 23.1812 16.0439L22.5718 14.5635C22.4317 14.2272 22.2909 14.0833 22.1606 14.0215C22.095 13.9905 22.0315 13.9799 21.9712 13.9766L21.7993 13.9736C21.5978 13.9636 21.367 13.9619 21.1362 13.9619C20.9359 13.9619 20.6254 14.0277 20.3394 14.2754L20.2192 14.3926C19.902 14.7392 19.0094 15.5746 19.0093 17.2754C19.0093 18.1258 19.3183 18.9631 19.6499 19.6162C19.8157 19.9427 19.9869 20.2232 20.1274 20.4365L20.4214 20.8535C20.5903 21.0792 22.7236 24.3659 26.0122 25.9336L26.3335 26.0801C26.9528 26.3478 27.4706 26.5339 27.9028 26.6777L28.3071 26.8086Z" fill="#21272A" stroke="#21272A" stroke-width="0.0166749"/>
<path d="M32.3619 23.2561C32.0157 23.0826 30.313 22.2452 29.9955 22.1293C29.6784 22.0138 29.4472 21.9562 29.2165 22.3027C28.9856 22.6493 28.322 23.4295 28.1199 23.6606C27.9178 23.8916 27.716 23.9206 27.3696 23.7472C27.0232 23.5739 25.9074 23.208 24.5846 22.0283C23.5552 21.11 22.8602 19.976 22.6581 19.6295C22.4563 19.2826 22.6564 19.1132 22.81 18.9227C23.1849 18.4571 23.5603 17.969 23.6757 17.738C23.7912 17.507 23.7334 17.3046 23.6467 17.1314C23.5603 16.9581 22.8678 15.2535 22.5791 14.5599C22.2979 13.8848 22.0127 13.976 21.7999 13.9654C21.5981 13.9554 21.3671 13.9533 21.1362 13.9533C20.9054 13.9533 20.5301 14.0399 20.2126 14.3869C19.8953 14.7336 19.0007 15.5712 19.0007 17.2758C19.0007 18.9803 20.2417 20.6271 20.4148 20.8583C20.5879 21.0893 22.8568 24.5873 26.3307 26.0873C27.1569 26.4444 27.8018 26.6571 28.305 26.8167C29.1347 27.0804 29.8893 27.0431 30.4861 26.9541C31.1516 26.8545 32.5348 26.1163 32.8238 25.3074C33.1123 24.4984 33.1123 23.8051 33.0256 23.6606C32.9392 23.516 32.7081 23.4295 32.3619 23.2561ZM26.0431 31.8839H26.0385C23.9713 31.883 21.9442 31.3275 20.1752 30.2781L19.7546 30.0283L15.3946 31.1721L16.5585 26.9211L16.2844 26.4852C15.1313 24.6512 14.5223 22.5312 14.5233 20.3545C14.5257 14.0032 19.6936 8.83574 26.0477 8.83574C29.1247 8.83679 32.0171 10.0366 34.192 12.2141C36.3669 14.3916 37.564 17.2858 37.563 20.3639C37.5603 26.7159 32.3927 31.8839 26.0431 31.8839ZM35.8472 10.5596C33.2305 7.93983 29.7505 6.49659 26.0431 6.49502C18.4037 6.49502 12.1863 12.7122 12.1833 20.3537C12.1822 22.7964 12.8203 25.1811 14.0332 27.2829L12.0669 34.4648L19.4143 32.5375C21.4389 33.6417 23.7181 34.2238 26.0376 34.2244H26.0433C33.682 34.2244 39.9 28.0068 39.9029 20.3648C39.9044 16.6614 38.4641 13.1794 35.8472 10.5596Z" stroke="#21272A" stroke-width="0.333498" stroke-miterlimit="10"/>
</g>
</svg>
