<svg width="54" height="43" viewBox="0 0 54 43" fill="none" xmlns="http://www.w3.org/2000/svg">
<mask id="mask0_2397_14811" style="mask-type:luminance" maskUnits="userSpaceOnUse" x="0" y="0" width="54" height="43">
<path d="M0.885254 0.57719H53.497V42.3691H0.885254V0.57719Z" fill="white"/>
</mask>
<g mask="url(#mask0_2397_14811)">
<path d="M45.1725 20.4336C45.1725 25.5854 44.6849 28.8092 43.6384 30.5786C43.6372 30.5808 43.636 30.5831 43.6346 30.5855C42.7252 32.2012 41.8252 32.5248 39.585 32.676C37.2404 32.8104 31.4131 32.881 26.8687 32.881C22.3046 32.881 16.4678 32.8097 14.1471 32.6737C11.9062 32.5219 11.0055 32.1984 10.0855 30.5772C9.04181 28.7976 8.55566 25.5736 8.55566 20.4315V20.4127C8.55566 15.2761 9.04197 12.0455 10.0881 10.2429C11.0102 8.61609 11.9099 8.29844 14.1484 8.16936C16.4861 8.01342 22.4619 7.9582 26.8687 7.9582C31.2775 7.9582 37.2513 8.01416 39.5832 8.17233C41.819 8.29844 42.7175 8.6152 43.6358 10.2475C44.6984 12.0599 45.1725 15.1954 45.1725 20.4148V20.4336ZM44.2808 9.87697C43.1948 7.94578 41.967 7.56109 39.6293 7.42935C37.2856 7.27046 31.5011 7.21388 26.8687 7.21388C22.4502 7.21388 16.4545 7.26956 14.102 7.4267C11.7622 7.56138 10.5338 7.94712 9.44263 9.87239C8.31451 11.8164 7.81152 15.0671 7.81152 20.4127V20.4315C7.81152 25.7839 8.31481 29.029 9.44084 30.949C10.5273 32.8636 11.7553 33.2574 14.1001 33.4163C16.4386 33.5535 22.2937 33.625 26.8687 33.625C31.4237 33.625 37.2691 33.5543 39.6316 33.4186C41.9756 33.2602 43.2036 32.8665 44.2814 30.9537C45.4123 29.0384 45.9168 25.7934 45.9168 20.4333V20.4147C45.9165 15.0556 45.4111 11.8036 44.2808 9.87697Z" fill="#21272A" fill-opacity="0.980392"/>
<path d="M45.1725 20.4336C45.1725 25.5854 44.6849 28.8092 43.6384 30.5786C43.6372 30.5808 43.636 30.5831 43.6346 30.5855C42.7252 32.2012 41.8252 32.5248 39.585 32.676C37.2404 32.8104 31.4131 32.881 26.8687 32.881C22.3046 32.881 16.4678 32.8097 14.1471 32.6737C11.9062 32.5219 11.0055 32.1984 10.0855 30.5772C9.04181 28.7976 8.55566 25.5736 8.55566 20.4315V20.4127C8.55566 15.2761 9.04197 12.0455 10.0881 10.2429C11.0102 8.61609 11.9099 8.29844 14.1484 8.16936C16.4861 8.01342 22.4619 7.9582 26.8687 7.9582C31.2775 7.9582 37.2513 8.01416 39.5832 8.17233C41.819 8.29844 42.7175 8.6152 43.6358 10.2475C44.6984 12.0599 45.1725 15.1954 45.1725 20.4148V20.4336ZM44.2808 9.87697C43.1948 7.94578 41.967 7.56109 39.6293 7.42935C37.2856 7.27046 31.5011 7.21388 26.8687 7.21388C22.4502 7.21388 16.4545 7.26956 14.102 7.4267C11.7622 7.56138 10.5338 7.94712 9.44263 9.87239C8.31451 11.8164 7.81152 15.0671 7.81152 20.4127V20.4315C7.81152 25.7839 8.31481 29.029 9.44084 30.949C10.5273 32.8636 11.7553 33.2574 14.1001 33.4163C16.4386 33.5535 22.2937 33.625 26.8687 33.625C31.4237 33.625 37.2691 33.5543 39.6316 33.4186C41.9756 33.2602 43.2036 32.8665 44.2814 30.9537C45.4123 29.0384 45.9168 25.7934 45.9168 20.4333V20.4147C45.9165 15.0556 45.4111 11.8036 44.2808 9.87697Z" stroke="#21272A" stroke-opacity="0.980392" stroke-width="2.51076" stroke-miterlimit="10"/>
<path d="M22.5661 26.7638V14.0774L33.1456 20.4204L22.5661 26.7638ZM34.0606 20.1015L22.3855 13.1012C22.2703 13.0323 22.1272 13.0305 22.0107 13.0967C21.894 13.1627 21.8218 13.2864 21.8218 13.4205V27.4208C21.8218 27.5549 21.894 27.6785 22.0107 27.7447C22.0677 27.7769 22.1307 27.793 22.1941 27.793C22.2602 27.793 22.3264 27.7751 22.3855 27.74L34.0603 20.7397C34.1728 20.6724 34.241 20.5516 34.241 20.4206C34.241 20.2898 34.1728 20.1687 34.0606 20.1015Z" fill="#21272A" fill-opacity="0.980392"/>
<path d="M22.5661 26.7638V14.0774L33.1456 20.4204L22.5661 26.7638ZM34.0606 20.1015L22.3855 13.1012C22.2703 13.0323 22.1272 13.0305 22.0107 13.0967C21.894 13.1627 21.8218 13.2864 21.8218 13.4205V27.4208C21.8218 27.5549 21.894 27.6785 22.0107 27.7447C22.0677 27.7769 22.1307 27.793 22.1941 27.793C22.2602 27.793 22.3264 27.7751 22.3855 27.74L34.0603 20.7397C34.1728 20.6724 34.241 20.5516 34.241 20.4206C34.241 20.2898 34.1728 20.1687 34.0606 20.1015Z" stroke="#21272A" stroke-opacity="0.980392" stroke-width="2.51076" stroke-miterlimit="10"/>
</g>
</svg>
