<svg width="1440" height="704" viewBox="0 0 1440 704" fill="none" xmlns="http://www.w3.org/2000/svg">
<mask id="mask0_2591_7972" style="mask-type:alpha" maskUnits="userSpaceOnUse" x="0" y="0" width="1440" height="704">
<rect width="1440" height="704" fill="#D9D9D9"/>
</mask>
<g mask="url(#mask0_2591_7972)">
<path d="M1799.26 151.807C1251.64 72.7765 770.227 608.955 288.753 391.657C86.7327 300.482 -6.4686 150.494 -6.55431 150.356L-46.5543 414.091L-486.366 413.122L-486.862 638.63C-486.862 638.63 -343.856 515.209 -206.775 490.344C35.4037 446.417 -73.5907 628.466 354.734 692.758C783.059 757.048 1232.59 478.659 1790.18 548.232C2015.36 576.328 2096.48 596.418 2096.64 596.458L2097.01 430.193C2269 430.604 2448.57 431.02 2640.36 431.442L2640.85 205.935C2640.79 205.97 2539.25 259.56 2321.63 253.095C2089.12 246.188 1970.71 176.552 1799.26 151.807Z" fill="url(#paint0_linear_2591_7972)"/>
</g>
<defs>
<linearGradient id="paint0_linear_2591_7972" x1="897.518" y1="728.276" x2="913.738" y2="423.947" gradientUnits="userSpaceOnUse">
<stop stop-color="#2B3657"/>
<stop offset="1" stop-color="#92505B"/>
</linearGradient>
</defs>
</svg>
