<svg width="1440" height="704" viewBox="0 0 1440 704" fill="none" xmlns="http://www.w3.org/2000/svg">
<mask id="mask0_2591_7982" style="mask-type:alpha" maskUnits="userSpaceOnUse" x="0" y="0" width="1440" height="704">
<rect width="1440" height="704" fill="#D9D9D9"/>
</mask>
<g mask="url(#mask0_2591_7982)">
<path d="M1798.98 151.87C1251.37 72.839 769.95 609.018 288.475 391.72C86.4553 300.545 -6.74594 150.556 -6.83165 150.418L-46.8316 414.153L-486.643 413.184L-487.14 638.693C-487.14 638.693 -344.133 515.271 -207.053 490.407C35.1263 446.479 -73.8681 628.529 354.457 692.82C782.782 757.111 1232.31 478.722 1789.9 548.294C2015.09 576.391 2096.2 596.48 2096.36 596.52L2096.73 430.256C2268.73 430.667 2448.29 431.082 2640.08 431.504L2640.57 205.997C2640.51 206.033 2538.97 259.622 2321.35 253.157C2088.85 246.251 1970.44 176.614 1798.98 151.87Z" fill="url(#paint0_linear_2591_7982)"/>
</g>
<defs>
<linearGradient id="paint0_linear_2591_7982" x1="897.241" y1="728.338" x2="913.461" y2="424.01" gradientUnits="userSpaceOnUse">
<stop stop-color="#F2A8AF"/>
<stop offset="1" stop-color="#5CC0BE"/>
</linearGradient>
</defs>
</svg>
