<svg width="1440" height="704" viewBox="0 0 1440 704" fill="none" xmlns="http://www.w3.org/2000/svg">
<mask id="mask0_2591_7977" style="mask-type:alpha" maskUnits="userSpaceOnUse" x="0" y="0" width="1440" height="704">
<rect width="1440" height="704" fill="#D9D9D9"/>
</mask>
<g mask="url(#mask0_2591_7977)">
<path d="M1799.25 151.809C1251.64 72.7784 770.225 608.958 288.751 391.66C86.6376 300.443 -6.55626 150.358 -6.55626 150.358L-46.5563 414.094L-486.368 413.125L-486.864 638.632C-486.734 638.52 -343.796 515.199 -206.777 490.346C35.4016 446.419 -73.5926 628.468 354.732 692.759C783.057 757.05 1232.59 478.662 1790.18 548.235C2015.33 576.327 2096.46 596.414 2096.64 596.46L2097.01 430.195C2269 430.606 2448.57 431.022 2640.35 431.445L2640.85 205.937C2640.85 205.937 2539.32 259.564 2321.63 253.097C2089.12 246.19 1970.71 176.554 1799.25 151.809Z" fill="url(#paint0_linear_2591_7977)"/>
</g>
<defs>
<linearGradient id="paint0_linear_2591_7977" x1="897.516" y1="728.278" x2="913.736" y2="423.949" gradientUnits="userSpaceOnUse">
<stop stop-color="#87BD27"/>
<stop offset="1" stop-color="#C2D500"/>
</linearGradient>
</defs>
</svg>
