<svg width="768" height="363" viewBox="0 0 768 363" fill="none" xmlns="http://www.w3.org/2000/svg">
<path d="M50.7031 19.6789C114.693 -9.50243 171.682 10.9475 218.001 45.715C262.571 79.17 303.367 130.243 339.438 173.795C377.765 220.072 410.418 257.37 442.171 275.631C457.017 284.169 469.408 287.121 480.552 286.167C491.406 285.238 505.23 280.248 522.507 265.317L523.332 264.599C529.9 258.838 535.395 250.802 540.958 239.318C547.348 226.126 550.697 215.844 558.103 198.719C571.123 168.609 592.092 130.703 643.406 117.938L644.624 117.641C690.567 106.671 730.072 128.493 758.185 153.35C759.551 154.558 760.905 155.786 762.247 157.031V270.67C747.856 247.114 730.294 223.141 711.313 206.359C690.527 187.979 674.205 183.325 661.057 186.464L660.199 186.676C642.337 191.218 633.641 202.312 623.049 226.805C618.513 237.294 611.449 256.105 604.64 270.163C597.003 285.93 586.51 303.305 569.989 317.795L568.765 318.862C543.014 341.111 515.631 354.181 486.588 356.668C457.201 359.184 430.413 350.495 406.896 336.97C361.922 311.106 321.108 262.597 284.942 218.93C246.52 172.538 211.792 129.529 175.523 102.305C141.004 76.3941 111.836 69.5694 80.0625 84.0588L78.7686 84.6574C72.3112 87.692 66.0201 91.3242 59.8857 95.5226L58.7451 96.3107C38.8236 110.216 21.1978 129.641 5.75391 152.161V47.6672C9.83893 44.38 14.029 41.2302 18.3271 38.2326L19.9209 37.131C28.9727 30.9359 38.5515 25.3755 48.6719 20.6193L50.7031 19.6789Z" fill="url(#paint0_linear_2413_21057)" fill-opacity="0.3"/>
<defs>
<linearGradient id="paint0_linear_2413_21057" x1="457.196" y1="120.349" x2="222.314" y2="237.324" gradientUnits="userSpaceOnUse">
<stop stop-color="#C2D500"/>
<stop offset="1" stop-color="#87BD27"/>
</linearGradient>
</defs>
</svg>
