<svg width="687" height="504" viewBox="0 0 687 504" fill="none" xmlns="http://www.w3.org/2000/svg">
<path opacity="0.53" d="M35.7407 0.00924904C45.2984 0.0948536 51.9998 4.00914 54.6919 5.78171C57.789 7.82097 59.8841 9.91311 60.9214 11.0122C63.0266 13.2426 64.3641 15.2595 64.8335 15.978C66.583 18.6555 67.7377 21.2818 67.8618 21.5542C68.3215 22.5623 68.7756 23.6313 69.1949 24.645C71.9239 31.2428 77.4672 46.0372 86.2554 71.1069C96.3531 95.5393 110.15 126.383 125.99 155.994L127.418 158.65C142.206 186.008 157.871 210.541 173.002 227.627C190.555 247.448 199.186 248.069 199.161 248.071L200.032 247.995C218.181 246.271 228.367 236.749 242.442 214.419C248.47 204.857 258.232 187.545 267.025 174.839C276.886 160.59 289.782 145.203 308.132 133.551L309.451 132.72C337.169 115.4 365.098 106.748 393.1 108.09C421.529 109.453 446.043 120.924 466.831 136.767C506.533 167.027 538.558 218.184 566.598 264.96L571.16 272.59C593.852 310.633 614.92 347.015 638.04 377.301C654.979 399.492 671.119 415.748 687 426.086V503.109C643.378 489.193 609.608 455.403 582.407 419.77C556.408 385.712 532.76 344.872 510.914 308.217L506.569 300.946C477.169 251.9 451.575 213.14 424.405 192.432C411.756 182.791 400.519 178.517 389.75 178C379.335 177.501 365.613 180.338 347.422 191.528L345.648 192.636C338.352 197.269 331.761 204.288 324.579 214.667C316.328 226.59 311.491 236.129 301.65 251.742C284.347 279.192 258.091 313.054 205.997 317.731L204.761 317.836C168.681 320.733 139.601 295.481 120.604 274.029C100.328 251.132 81.6771 221.228 65.8023 191.847L64.2749 189.006C48.9473 160.353 35.4964 130.89 25.0728 106.217L24.4468 106.434C23.1719 102.753 21.9612 99.2738 20.812 95.9897C14.6722 81.0595 9.85103 68.4452 6.66165 59.6391C4.57587 53.8802 2.75194 48.5644 1.84231 45.2319C1.69847 44.7049 1.49587 43.9362 1.29837 43.0473C1.18981 42.5587 0.701864 40.4078 0.501493 37.6909C0.439575 36.8513 0.09056 32.6459 1.23587 27.4702C1.7896 24.9679 3.37238 18.9347 8.27981 12.9096C14.3089 5.50783 24.0568 -0.0951976 35.7407 0.00924904Z" fill="url(#paint0_linear_2422_21087)" fill-opacity="0.5"/>
<defs>
<linearGradient id="paint0_linear_2422_21087" x1="380.668" y1="246.244" x2="613.565" y2="160.768" gradientUnits="userSpaceOnUse">
<stop stop-color="#C2D500"/>
<stop offset="1" stop-color="#87BD27"/>
</linearGradient>
</defs>
</svg>
