<svg width="1440" height="670" viewBox="0 0 1440 670" fill="none" xmlns="http://www.w3.org/2000/svg">
<path d="M85.5576 27.1089C207.364 -28.4383 315.843 10.4888 404.013 76.6695C488.854 140.352 566.508 237.571 635.17 320.473C708.128 408.562 770.283 479.559 830.726 514.319C858.985 530.571 882.573 536.192 903.784 534.376C924.445 532.606 950.761 523.109 983.646 494.686L985.218 493.319C997.721 482.353 1008.18 467.057 1018.77 445.197C1030.93 420.086 1037.31 400.515 1051.4 367.917C1076.19 310.601 1116.1 238.444 1213.78 214.146L1216.1 213.582C1303.55 192.701 1378.75 234.239 1432.26 281.554C1434.87 283.855 1437.44 286.194 1440 288.566V504.878C1412.61 460.038 1379.17 414.403 1343.04 382.458C1303.48 347.472 1272.41 338.612 1247.38 344.588L1245.75 344.991C1211.74 353.636 1195.19 374.753 1175.03 421.377C1166.39 441.343 1152.95 477.15 1139.99 503.912C1125.45 533.924 1105.48 566.997 1074.03 594.58L1071.7 596.61C1022.68 638.961 970.557 663.841 915.273 668.575C859.335 673.364 808.344 656.822 763.578 631.078C677.969 581.844 600.28 489.508 531.438 406.387C458.299 318.08 392.195 236.211 323.157 184.39C257.447 135.068 201.925 122.077 141.443 149.658L140.211 150.223C127.488 156.114 115.102 163.221 103.036 171.479L100.865 172.98C62.9457 199.449 29.3969 236.424 0 279.29V80.3824C8.25389 73.7408 16.7321 67.3923 25.4434 61.3736L26.9639 60.3287C44.7685 48.143 63.6436 37.2479 83.6211 27.9986L85.5576 27.1089Z" fill="url(#paint0_linear_2411_21053)" fill-opacity="0.3"/>
<defs>
<linearGradient id="paint0_linear_2411_21053" x1="859.329" y1="218.736" x2="412.227" y2="441.401" gradientUnits="userSpaceOnUse">
<stop stop-color="#C2D500"/>
<stop offset="1" stop-color="#87BD27"/>
</linearGradient>
</defs>
</svg>
